<?xml version="1.0" encoding="UTF-8" standalone="no"?>
<!-- Created with Inkscape (http://www.inkscape.org/) -->

<svg
   xmlns:dc="http://purl.org/dc/elements/1.1/"
   xmlns:cc="http://creativecommons.org/ns#"
   xmlns:rdf="http://www.w3.org/1999/02/22-rdf-syntax-ns#"
   xmlns:svg="http://www.w3.org/2000/svg"
   xmlns="http://www.w3.org/2000/svg"
   xmlns:sodipodi="http://sodipodi.sourceforge.net/DTD/sodipodi-0.dtd"
   xmlns:inkscape="http://www.inkscape.org/namespaces/inkscape"
   width="177.77667"
   height="190.50458"
   viewBox="0 0 177.77669 190.50457"
   id="svg2"
   version="1.1"
   inkscape:version="0.91 r13725"
   sodipodi:docname="favicon.svg">
  <defs
     id="defs4" />
  <sodipodi:namedview
     id="base"
     pagecolor="#ffffff"
     bordercolor="#666666"
     borderopacity="1.0"
     inkscape:pageopacity="0.0"
     inkscape:pageshadow="2"
     inkscape:zoom="0.70710678"
     inkscape:cx="217.94746"
     inkscape:cy="384.49822"
     inkscape:document-units="px"
     inkscape:current-layer="layer1"
     showgrid="false"
     showborder="false"
     inkscape:window-width="1366"
     inkscape:window-height="715"
     inkscape:window-x="-8"
     inkscape:window-y="-8"
     inkscape:window-maximized="1"
     showguides="true"
     inkscape:guide-bbox="true"
     fit-margin-top="0"
     fit-margin-left="0"
     fit-margin-right="0"
     fit-margin-bottom="0"
     units="px" />
  <metadata
     id="metadata7">
    <rdf:RDF>
      <cc:Work
         rdf:about="">
        <dc:format>image/svg+xml</dc:format>
        <dc:type
           rdf:resource="http://purl.org/dc/dcmitype/StillImage" />
        <dc:title></dc:title>
      </cc:Work>
    </rdf:RDF>
  </metadata>
  <g
     inkscape:label="Layer 1"
     inkscape:groupmode="layer"
     id="layer1"
     transform="translate(1149.5783,-237.04425)">
    <rect
       style="opacity:1;fill:#6e7bff;fill-opacity:0;stroke:#fff8f8;stroke-width:0.88699818;stroke-linecap:round;stroke-linejoin:round;stroke-miterlimit:4;stroke-dasharray:none;stroke-opacity:0.8639053"
       id="rect4913"
       width="176.88968"
       height="189.6176"
       x="-1149.1348"
       y="237.48769"
       rx="3.7205186e-006"
       inkscape:export-xdpi="15.117747"
       inkscape:export-ydpi="15.117747" />
    <g
       id="g4892"
       transform="matrix(0.17725885,0,0,0.17725885,-872.75241,275.9473)"
       style="fill:#336e7b;fill-opacity:0">
      <path
         id="path4140"
         d="M -1541.8903,26.592661 A 547.59583,547.59583 0 0 1 -823.37099,-121.05575"
         style="opacity:1;fill:#336e7b;fill-opacity:0;stroke:#c8d0d3;stroke-width:50.00001144;stroke-linecap:butt;stroke-linejoin:round;stroke-miterlimit:4;stroke-dasharray:none;stroke-opacity:1"
         inkscape:connector-curvature="0" />
      <path
         id="path4142"
         d="m -1315.1036,31.964784 a 384.39792,384.39792 0 0 1 479.89467,41.199805 384.39792,384.39792 0 0 1 62.92385,477.532131"
         style="opacity:0.272676;fill:#336e7b;fill-opacity:0;stroke:#000000;stroke-width:29.99999619;stroke-linecap:butt;stroke-linejoin:round;stroke-miterlimit:4;stroke-dasharray:none;stroke-opacity:1"
         inkscape:connector-curvature="0" />
      <path
         id="path4144"
         d="m -1294.9873,-109.40618 a 499.75409,499.75409 0 0 1 468.09917,42.46328 499.75409,499.75409 0 0 1 225.82505,412.21723"
         style="opacity:1;fill:#336e7b;fill-opacity:0;stroke:#f0eded;stroke-width:20;stroke-linecap:butt;stroke-linejoin:round;stroke-miterlimit:4;stroke-dasharray:none;stroke-opacity:1"
         inkscape:connector-curvature="0" />
      <path
         id="path4146"
         d="m -1341.5671,-7.437214 a 431.86191,431.86191 0 0 1 475.11152,-4.252324 431.86191,431.86191 0 0 1 191.47617,434.840098 431.86191,431.86191 0 0 1 -323.92578,347.59335"
         style="opacity:0.37236406;fill:#336e7b;fill-opacity:0;stroke:#000000;stroke-width:10;stroke-linecap:butt;stroke-linejoin:round;stroke-miterlimit:4;stroke-dasharray:none;stroke-opacity:1"
         inkscape:connector-curvature="0" />
      <path
         id="path4148"
         d="m -1290.014,69.321337 a 339.39789,339.39789 0 0 1 459.89557,76.978173 339.39789,339.39789 0 0 1 -51.00072,463.49598"
         style="opacity:0.575;fill:#336e7b;fill-opacity:0;stroke:#e5d5d5;stroke-width:5;stroke-linecap:butt;stroke-linejoin:round;stroke-miterlimit:4;stroke-dasharray:none;stroke-opacity:1"
         inkscape:connector-curvature="0" />
      <path
         id="path4164"
         d="M -1049.1499,650.0588 A 303.41364,303.41364 0 0 1 -1374.6194,481.73755"
         style="opacity:0.37236406;fill:#336e7b;fill-opacity:0;stroke:#000000;stroke-width:50.00001144;stroke-linecap:butt;stroke-linejoin:round;stroke-miterlimit:4;stroke-dasharray:none;stroke-opacity:1"
         inkscape:connector-curvature="0" />
      <path
         id="path4166"
         d="M -886.46348,670.1769 A 384.39792,384.39792 0 0 1 -1366.3582,628.97709 384.39792,384.39792 0 0 1 -1429.282,151.44495"
         style="opacity:0.37236406;fill:#336e7b;fill-opacity:0;stroke:#000000;stroke-width:29.99999619;stroke-linecap:butt;stroke-linejoin:round;stroke-miterlimit:4;stroke-dasharray:none;stroke-opacity:1"
         inkscape:connector-curvature="0" />
      <path
         id="path4168"
         d="M -872.3131,409.32559 A 235.7803,235.7803 0 0 1 -1128.7821,585.18288 235.7803,235.7803 0 0 1 -1336.548,353.8056"
         style="opacity:0.37236406;fill:#336e7b;fill-opacity:0;stroke:#000000;stroke-width:20;stroke-linecap:butt;stroke-linejoin:round;stroke-miterlimit:4;stroke-dasharray:none;stroke-opacity:1"
         inkscape:connector-curvature="0" />
      <path
         id="path4170"
         d="m -944.82441,583.28197 a 279.72351,279.72351 0 0 1 -307.73699,2.75429 279.72351,279.72351 0 0 1 -124.022,-281.65253 279.72351,279.72351 0 0 1 209.8117,-225.141483"
         style="opacity:0.37236406;fill:#336e7b;fill-opacity:0;stroke:#f0e6e6;stroke-width:10;stroke-linecap:butt;stroke-linejoin:round;stroke-miterlimit:4;stroke-dasharray:none;stroke-opacity:1"
         inkscape:connector-curvature="0" />
      <path
         id="path4172"
         d="M -853.75145,718.88248 A 443.06909,443.06909 0 0 1 -1454.125,618.39084 443.06909,443.06909 0 0 1 -1387.5458,13.31712"
         style="opacity:1;fill:#336e7b;fill-opacity:0;stroke:#e8d8d8;stroke-width:5;stroke-linecap:butt;stroke-linejoin:round;stroke-miterlimit:4;stroke-dasharray:none;stroke-opacity:1"
         inkscape:connector-curvature="0" />
      <path
         id="path4202"
         d="m -770.85295,682.09313 a 467.3649,467.3649 0 0 0 128.8369,-420.25377 467.3649,467.3649 0 0 0 -276.96588,-341.324"
         style="opacity:0.06400003;fill:#336e7b;fill-opacity:0;stroke:#edd3d3;stroke-width:20;stroke-linecap:butt;stroke-linejoin:round;stroke-miterlimit:4;stroke-dasharray:none;stroke-opacity:1"
         inkscape:connector-curvature="0" />
      <path
         id="path4206"
         d="m -1284.0894,167.15863 a 259.66275,259.66275 0 0 0 -71.5804,233.48832 259.66275,259.66275 0 0 0 153.8792,189.63583"
         style="opacity:0.58713301;fill:#336e7b;fill-opacity:0;stroke:#ede4e4;stroke-width:20;stroke-linecap:butt;stroke-linejoin:round;stroke-miterlimit:4;stroke-dasharray:none;stroke-opacity:1"
         inkscape:connector-curvature="0" />
      <path
         id="path4210"
         d="M -1022.5351,804.1736 A 459.80972,459.80972 0 0 1 -1515.7694,549.09033"
         style="opacity:0.73299997;fill:#336e7b;fill-opacity:0;stroke:#efe8e8;stroke-width:50.00001144;stroke-linecap:butt;stroke-linejoin:round;stroke-miterlimit:4;stroke-dasharray:none;stroke-opacity:1"
         inkscape:connector-curvature="0" />
      <path
         id="path4212"
         d="m -1351.2921,-21.916986 a 449.30435,449.30435 0 0 1 560.92601,48.156485 449.30435,449.30435 0 0 1 73.54869,558.164481"
         style="opacity:1;fill:#336e7b;fill-opacity:0;stroke:#ede4e4;stroke-width:29.99999428;stroke-linecap:butt;stroke-linejoin:round;stroke-miterlimit:4;stroke-dasharray:none;stroke-opacity:0.47337281"
         inkscape:connector-curvature="0" />
      <path
         id="path4214"
         d="m -1184.9951,-136.56136 a 494.85019,494.85019 0 0 1 530.82196,274.52228"
         style="opacity:1;fill:#336e7b;fill-opacity:0;stroke:#929599;stroke-width:50.00001144;stroke-linecap:butt;stroke-linejoin:round;stroke-miterlimit:4;stroke-dasharray:none;stroke-opacity:1"
         inkscape:connector-curvature="0" />
      <path
         id="path4216"
         d="m -619.75712,163.65789 a 516.24609,516.24609 0 0 1 -84.45808,517.93304 516.24609,516.24609 0 0 1 -494.2366,176.40288"
         style="opacity:1;fill:#336e7b;fill-opacity:0;stroke:#2d2f30;stroke-width:50.00001144;stroke-linecap:butt;stroke-linejoin:round;stroke-miterlimit:4;stroke-dasharray:none;stroke-opacity:1"
         inkscape:connector-curvature="0" />
      <path
         id="path4220"
         d="m -869.16559,695.93212 a 415.42288,415.42288 0 0 1 -457.02621,4.09046 415.42288,415.42288 0 0 1 -184.1875,-418.28771 415.42288,415.42288 0 0 1 311.5954,-334.362042"
         style="opacity:1;fill:#336e7b;fill-opacity:0;stroke:#e9dcdc;stroke-width:10;stroke-linecap:butt;stroke-linejoin:round;stroke-miterlimit:4;stroke-dasharray:none;stroke-opacity:1"
         inkscape:connector-curvature="0" />
      <path
         id="path4226"
         d="M -763.42937,437.08842 A 348.14777,348.14777 0 0 1 -1142.1255,696.75525 348.14777,348.14777 0 0 1 -1448.9079,355.10889"
         style="opacity:1;fill:#336e7b;fill-opacity:0;stroke:#737475;stroke-width:20;stroke-linecap:butt;stroke-linejoin:round;stroke-miterlimit:4;stroke-dasharray:none;stroke-opacity:1"
         inkscape:connector-curvature="0" />
      <path
         id="path4228"
         d="m -1190.8416,137.53397 a 231.75087,231.75087 0 0 1 217.07153,19.6915 231.75087,231.75087 0 0 1 104.72181,191.15741"
         style="opacity:0.353;fill:#336e7b;fill-opacity:0;stroke:#ded1d1;stroke-width:20;stroke-linecap:butt;stroke-linejoin:round;stroke-miterlimit:4;stroke-dasharray:none;stroke-opacity:1"
         inkscape:connector-curvature="0" />
    </g>
  </g>
</svg>
